/* XPM */
static char *battery[] = {
/* width height num_colors chars_per_pixel */
"27 27 8 1",
"X   c #444444",
"w   c #cccccc",
"    c none",
"g   c #449944",
"h   c #55aa55",
"i   c #66bb66",
"j   c #77cc77",
"y   c #cccc77",
"                           ",
"                           ",
"           wwwww           ",
"          wwwwwww          ",
"        wwwwwwwwwww        ",
"       wwwwwwwwwwwww       ",
"       ww         ww   yy  ",
"       ww         ww   yy  ",
"       ww         ww   yy  ",
"       ww         ww yyyyyy",
"       ww ghijihg ww yyyyyy",
"       ww ghijihg ww   yy  ",
"       ww ghijihg ww   yy  ",
"       ww ghijihg ww   yy  ",
"       ww ghijihg ww       ",
"       ww ghijihg ww       ",
"       ww ghijihg ww       ",
"       ww ghijihg ww       ",
"       ww ghijihg ww       ",
"       ww         ww       ",
"       wwwwwwwwwwwww       ",
"        wwwwwwwwwww        ",
"                           ",
"                           ",
"                           ",
"                           ",
"                           "};
